<?xml version="1.0" encoding="UTF-8"?>
<svg width="412px" height="425px" viewBox="0 0 412 425" version="1.1" xmlns="http://www.w3.org/2000/svg" xmlns:xlink="http://www.w3.org/1999/xlink">
    <!-- Generator: Sketch 52.6 (67491) - http://www.bohemiancoding.com/sketch -->
    <title>shopping-cart</title>
    <desc>Created with Sketch.</desc>
    <g id="Page-1" stroke="none" stroke-width="1" fill="none" fill-rule="evenodd">
        <g id="shopping-cart" transform="translate(0.000000, -1.000000)" fill="#FFFFFF">
            <circle id="Oval" cx="164.241" cy="375.273" r="50.176"></circle>
            <path d="M310.673,325.098 C282.962,325.098 260.497,347.563 260.497,375.274 C260.497,402.985 282.962,425.45 310.673,425.45 C338.384,425.45 360.849,402.985 360.849,375.274 C360.849,347.563 338.384,325.098 310.673,325.098 Z" id="Path"></path>
            <path d="M396.177,273.897 L134.545,273.897 L129.425,244.201 L344.465,244.201 C350.791,244.22 356.482,240.358 358.801,234.473 L410.001,105.449 C413.112,97.557 409.235,88.637 401.343,85.527 C399.535,84.814 397.608,84.451 395.665,84.457 L102.801,84.457 L90.513,13.801 C89.251,6.33 82.729,0.895 75.153,1.001 L16.273,1.001 C7.79,1.001 0.913,7.878 0.913,16.361 C0.913,24.844 7.79,31.721 16.273,31.721 L62.353,31.721 L106.385,291.817 C107.647,299.288 114.169,304.723 121.745,304.617 L396.177,304.617 C404.66,304.617 411.537,297.74 411.537,289.257 C411.537,280.774 404.66,273.897 396.177,273.897 Z" id="Path"></path>
        </g>
    </g>
</svg>